# Blender 5.1.2
# www.blender.org
mtllib Map.mtl
o Plane
v 49.223267 0.000000 -49.373795
v -49.223274 0.000000 -49.373795
v 49.223267 0.000000 49.373795
v -49.223274 0.000000 49.373795
v 49.223267 0.000000 40.396740
v 49.223267 0.000000 12.707373
v 49.223267 0.000000 9.076694
v 49.223267 0.000000 5.446017
v 49.223267 0.000000 1.815338
v 49.223267 0.000000 -1.815339
v 49.223267 0.000000 -5.446017
v 49.223267 0.000000 -9.076695
v 49.223267 0.000000 -12.707373
v 49.223267 0.000000 -40.396740
v 40.273582 0.000000 -49.373795
v 12.707373 0.000000 -49.373795
v 9.076694 0.000000 -49.373795
v 5.446017 0.000000 -49.373795
v 1.815338 0.000000 -49.373795
v -1.815339 0.000000 -49.373795
v -5.446017 0.000000 -49.373795
v -9.076695 0.000000 -49.373795
v -12.707373 0.000000 -49.373795
v -40.273590 0.000000 -49.373795
v -49.223274 0.000000 -40.396740
v -49.223274 0.000000 -12.707373
v -49.223274 0.000000 -9.076694
v -49.223274 0.000000 -5.446017
v -49.223274 0.000000 -1.815338
v -49.223274 0.000000 1.815339
v -49.223274 0.000000 5.446017
v -49.223274 0.000000 9.076695
v -49.223274 0.000000 12.707373
v -49.223274 0.000000 40.396740
v -40.273590 0.000000 49.373795
v -12.707373 0.000000 49.373795
v -9.076694 0.000000 49.373795
v -5.446017 0.000000 49.373795
v -1.815338 0.000000 49.373795
v 1.815339 0.000000 49.373795
v 5.446017 0.000000 49.373795
v 9.076695 0.000000 49.373795
v 12.707373 0.000000 49.373795
v 40.273582 0.000000 49.373795
v 40.273582 0.000000 -40.396740
v 40.273582 0.000000 -12.707373
v 40.273582 0.000000 -9.076694
v 40.273582 0.000000 -5.446017
v 40.273582 0.000000 -1.815338
v 40.273582 0.000000 1.815339
v 40.273582 0.000000 5.446017
v 40.273582 0.000000 9.076695
v 40.273582 0.000000 12.707373
v 40.273582 0.000000 40.396740
v 12.707373 0.000000 -40.396740
v 12.707373 0.000000 -12.707373
v 12.707373 0.000000 -9.076694
v 12.707373 0.000000 -5.446017
v 12.707373 0.000000 -1.815338
v 12.707373 0.000000 1.815339
v 12.707373 0.000000 5.446017
v 12.707373 0.000000 9.076695
v 12.707373 0.000000 12.707373
v 12.707373 0.000000 40.396740
v 9.076694 0.000000 -40.396740
v 9.076694 0.000000 -12.707373
v 9.076694 0.000000 -9.076694
v 9.076694 0.000000 -5.446017
v 9.076694 0.000000 -1.815338
v 9.076694 0.000000 1.815339
v 9.076694 0.000000 5.446017
v 9.076694 0.000000 9.076695
v 9.076694 0.000000 12.707373
v 9.076694 0.000000 40.396740
v 5.446017 0.000000 -40.396740
v 5.446017 0.000000 -12.707373
v 5.446017 0.000000 -9.076694
v 5.446017 0.000000 9.076695
v 5.446017 0.000000 12.707373
v 5.446017 0.000000 40.396740
v 1.815339 0.000000 -40.396740
v 1.815339 0.000000 -12.707373
v 1.815339 0.000000 -9.076694
v 1.815339 0.000000 9.076695
v 1.815339 0.000000 12.707373
v 1.815339 0.000000 40.396740
v -1.815339 0.000000 -40.396740
v -1.815339 0.000000 -12.707373
v -1.815339 0.000000 -9.076694
v -1.815339 0.000000 9.076695
v -1.815339 0.000000 12.707373
v -1.815338 0.000000 40.396740
v -5.446017 0.000000 -40.396740
v -5.446017 0.000000 -12.707373
v -5.446017 0.000000 -9.076694
v -40.273590 -0.868211 40.396740
v -40.273590 -0.868211 12.707373
v -12.707373 -0.868211 40.396740
v -12.707373 -0.868211 12.707373
v -5.446017 0.000000 9.076695
v -5.446017 0.000000 12.707373
v -5.446017 0.000000 40.396740
v -9.076695 0.000000 -40.396740
v -9.076695 0.000000 -12.707373
v -9.076695 0.000000 -9.076694
v -9.076695 0.000000 -5.446017
v -9.076695 0.000000 -1.815338
v -9.076695 0.000000 1.815339
v -9.076695 0.000000 5.446017
v -9.076695 0.000000 9.076695
v -9.076695 0.000000 12.707373
v -9.076694 0.000000 40.396740
v -12.707373 0.000000 -40.396740
v -12.707373 0.000000 -12.707373
v -12.707373 0.000000 -9.076694
v -12.707373 0.000000 -5.446017
v -12.707373 0.000000 -1.815338
v -12.707373 0.000000 1.815339
v -12.707373 0.000000 5.446017
v -12.707373 0.000000 9.076695
v -12.707373 0.000000 12.707373
v -12.707373 0.000000 40.396740
v -40.273590 0.000000 -40.396740
v -40.273590 0.000000 -12.707373
v -40.273590 0.000000 -9.076694
v -40.273590 0.000000 -5.446017
v -40.273590 0.000000 -1.815338
v -40.273590 0.000000 1.815339
v -40.273590 0.000000 5.446017
v -40.273590 0.000000 9.076695
v -40.273590 0.000000 12.707373
v -40.273590 0.000000 40.396740
v 9.076694 -31.818192 -9.076694
v 9.076694 -31.818192 -5.446017
v 9.076694 -31.818192 -1.815338
v 9.076694 -31.818192 1.815339
v 9.076694 -31.818192 5.446017
v 9.076694 -31.818192 9.076695
v 5.446017 -31.818192 -9.076694
v 5.446017 -31.818192 -5.446017
v 5.446017 -31.818192 -1.815338
v 5.446017 -31.818192 1.815339
v 5.446017 -31.818192 5.446017
v 5.446017 -31.818192 9.076695
v 1.815339 -31.818192 -9.076694
v 1.815339 -31.818192 -5.446017
v 1.815339 -31.818192 -1.815338
v 1.815339 -31.818192 1.815339
v 1.815339 -31.818192 5.446017
v 1.815339 -31.818192 9.076695
v -1.815339 -31.818192 -9.076694
v -1.815339 -31.818192 -5.446017
v -1.815339 -31.818192 -1.815338
v -1.815339 -31.818192 1.815339
v -1.815339 -31.818192 5.446017
v -1.815339 -31.818192 9.076695
v -5.446017 -31.818192 -9.076694
v -5.446017 -31.818192 -5.446017
v -5.446017 -31.818192 -1.815338
v -5.446017 -31.818192 1.815339
v -5.446017 -31.818192 5.446017
v -5.446017 -31.818192 9.076695
v -9.076695 -31.818192 -9.076694
v -9.076695 -31.818192 -5.446017
v -9.076695 -31.818192 -1.815338
v -9.076695 -31.818192 1.815339
v -9.076695 -31.818192 5.446017
v -9.076695 -31.818192 9.076695
v 40.273582 4.304635 -40.396740
v 40.273582 4.304635 -12.707373
v 12.707373 4.304635 -40.396740
v 12.707373 4.304635 -12.707373
v 9.076694 4.304635 -40.396740
v 9.076694 4.304635 -12.707373
v 5.446017 4.304635 -40.396740
v 5.446017 4.304635 -12.707373
v 1.815339 4.304635 -40.396740
v 1.815339 4.304635 -12.707373
v -1.815339 4.304635 -40.396740
v -1.815339 4.304635 -12.707373
v -5.446017 4.304635 -40.396740
v -5.446017 4.304635 -12.707373
v -9.076695 4.304635 -40.396740
v -9.076695 4.304635 -12.707373
v -12.707373 4.304635 -40.396740
v -12.707373 4.304635 -12.707373
v -40.273590 4.304635 -40.396740
v -40.273590 4.304635 -12.707373
v 9.076694 -1.286018 -40.396740
v 9.076694 -1.286018 -12.707373
v 5.446017 -1.286018 -40.396740
v 5.446017 -1.286018 -12.707373
v 1.815339 -1.286018 -40.396740
v 1.815339 -1.286018 -12.707373
v -1.815339 -1.286018 -40.396740
v -1.815339 -1.286018 -12.707373
v -5.446017 -1.286018 -40.396740
v -5.446017 -1.286018 -12.707373
v -9.076695 -1.286018 -40.396740
v -9.076695 -1.286018 -12.707373
v -34.201641 33.598831 40.396740
v -34.201641 33.598831 12.707373
v 40.273582 33.598831 40.396740
v 40.273582 33.598831 12.707373
v 9.076694 1.196082 12.707373
v 9.076694 1.196082 40.396740
v -9.076695 1.196082 12.707373
v -9.076694 1.196082 40.396740
v 5.446017 1.196082 12.707373
v 5.446017 1.196082 40.396740
v 1.815339 1.196082 12.707373
v 1.815339 1.196082 40.396740
v -1.815339 1.196082 12.707373
v -1.815338 1.196082 40.396740
v -5.446017 1.196082 12.707373
v -5.446017 1.196082 40.396740
vn -0.0000 1.0000 -0.0000
vn 1.0000 -0.0000 -0.0000
vn -0.0000 -0.0000 -1.0000
vn -0.0000 -0.0000 1.0000
vn -1.0000 -0.0000 -0.0000
vn -0.5823 -0.8130 -0.0000
vt 0.051835 0.590935
vt 0.000000 0.537214
vt 0.051835 0.537214
vt 0.570186 0.590935
vt 0.518351 0.537214
vt 0.570186 0.537214
vt 0.518351 0.590935
vt 0.358692 0.537214
vt 0.337664 0.590935
vt 0.337664 0.537214
vt 0.316636 0.537214
vt 0.295607 0.590935
vt 0.295607 0.537214
vt 0.274579 0.537214
vt 0.274579 0.590935
vt 0.253551 0.537214
vt 0.253551 0.590935
vt 0.232522 0.537214
vt 0.232522 0.590935
vt 0.211494 0.537214
vt 0.211494 0.590935
vt 0.570186 0.053721
vt 0.518351 0.000000
vt 0.570186 0.000000
vt 0.570186 0.219423
vt 0.518351 0.053721
vt 0.570186 0.241150
vt 0.518351 0.219423
vt 0.570186 0.262877
vt 0.518351 0.241150
vt 0.570186 0.284604
vt 0.518351 0.262877
vt 0.570186 0.306331
vt 0.518351 0.284604
vt 0.570186 0.328058
vt 0.518351 0.306331
vt 0.570186 0.349785
vt 0.518351 0.328058
vt 0.570186 0.371513
vt 0.518351 0.349785
vt 0.518351 0.371513
vt 0.358692 0.000000
vt 0.358692 0.219423
vt 0.358692 0.241150
vt 0.358692 0.262877
vt 0.358692 0.284604
vt 0.358692 0.306331
vt 0.358692 0.328058
vt 0.358692 0.349785
vt 0.320745 0.792001
vt 0.160372 0.590935
vt 0.320745 0.590935
vt 0.358692 0.053721
vt 0.337664 0.000000
vt 0.555959 0.612663
vt 0.531028 0.777627
vt 0.531028 0.612663
vt 0.337664 0.219423
vt 0.337664 0.241150
vt 0.337664 0.262877
vt 0.337664 0.284604
vt 0.337664 0.306331
vt 0.337664 0.328058
vt 0.358692 0.371513
vt 0.337664 0.349785
vt 0.337664 0.371513
vt 0.337664 0.053721
vt 0.316636 0.000000
vt 0.696356 0.917125
vt 0.675328 0.891365
vt 0.696356 0.891365
vt 0.316636 0.219423
vt 0.518526 0.946310
vt 0.523554 0.781345
vt 0.523554 0.946310
vt 0.564786 0.922339
vt 0.569814 0.756637
vt 0.569814 0.922339
vt 0.513497 0.947047
vt 0.518526 0.781345
vt 0.518526 0.947047
vt 0.924444 0.992203
vt 0.764785 0.826502
vt 0.924444 0.826502
vt 0.316636 0.349785
vt 0.316636 0.053721
vt 0.295607 0.000000
vt 0.316636 0.241150
vt 0.295607 0.219423
vt 0.341773 0.781345
vt 0.320745 0.781345
vt 0.488971 0.590935
vt 0.509999 0.781345
vt 0.488971 0.781345
vt 0.806842 0.445682
vt 0.827870 0.636092
vt 0.806842 0.636092
vt 0.383829 0.590935
vt 0.404858 0.781345
vt 0.383829 0.781345
vt 0.425886 0.590935
vt 0.446914 0.781345
vt 0.425886 0.781345
vt 0.316636 0.371513
vt 0.295607 0.349785
vt 0.295607 0.053721
vt 0.274579 0.000000
vt 0.977102 0.445682
vt 0.952170 0.611384
vt 0.952170 0.445682
vt 0.295607 0.241150
vt 0.274579 0.219423
vt 0.785814 0.445682
vt 0.785814 0.636092
vt 0.764785 0.636092
vt 0.785814 0.826502
vt 0.764785 0.826502
vt 0.764785 0.445682
vt 0.806842 0.826502
vt 0.341773 0.590935
vt 0.362801 0.781345
vt 0.295607 0.371513
vt 0.274579 0.349785
vt 0.274579 0.053721
vt 0.253551 0.000000
vt 0.894858 0.610647
vt 0.869927 0.632374
vt 0.869927 0.610647
vt 0.274579 0.241150
vt 0.253551 0.219423
vt 0.467943 0.590935
vt 0.467943 0.781345
vt 0.404858 0.590935
vt 0.827870 0.826502
vt 0.848898 0.826502
vt 0.509999 0.590935
vt 0.531028 0.781345
vt 0.253551 0.371513
vt 0.253551 0.349785
vt 0.253551 0.053721
vt 0.232522 0.000000
vt 0.253551 0.241150
vt 0.232522 0.219423
vt 0.362801 0.590935
vt 0.446914 0.590935
vt 0.848898 0.636092
vt 0.869927 0.826502
vt 0.848898 0.445682
vt 0.869927 0.636092
vt 0.827870 0.445682
vt 0.232522 0.349785
vt 0.232522 0.053721
vt 0.211494 0.000000
vt 0.894859 0.632374
vt 0.869927 0.654101
vt 0.869927 0.632374
vt 0.232522 0.241150
vt 0.211494 0.219423
vt 0.232522 0.262877
vt 0.211494 0.241150
vt 0.232522 0.284604
vt 0.211494 0.262877
vt 0.232522 0.306331
vt 0.211494 0.284604
vt 0.232522 0.328058
vt 0.211494 0.306331
vt 0.211494 0.328058
vt 0.232522 0.371513
vt 0.211494 0.349785
vt 0.211494 0.371513
vt 0.211494 0.053721
vt 0.051835 0.000000
vt 0.555959 0.590935
vt 0.531028 0.590935
vt 0.051835 0.219423
vt 0.051835 0.241150
vt 0.051835 0.262877
vt 0.051835 0.284604
vt 0.051835 0.306331
vt 0.051835 0.328058
vt 0.051835 0.349785
vt 0.523554 0.946310
vt 0.528583 0.781345
vt 0.528583 0.946310
vt 0.051835 0.053721
vt 0.000000 0.000000
vt 0.000000 0.053721
vt 0.000000 0.219423
vt 0.000000 0.241150
vt 0.000000 0.262877
vt 0.000000 0.284604
vt 0.000000 0.306331
vt 0.000000 0.328058
vt 0.051835 0.371513
vt 0.000000 0.349785
vt 0.000000 0.371513
vt 0.591215 0.891365
vt 0.570186 0.913092
vt 0.570186 0.891365
vt 0.612243 0.891365
vt 0.591215 0.913092
vt 0.633271 0.891365
vt 0.612243 0.913092
vt 0.654299 0.891365
vt 0.633271 0.913092
vt 0.654299 0.913092
vt 0.570186 0.934819
vt 0.591215 0.934819
vt 0.612243 0.934819
vt 0.633271 0.934819
vt 0.675328 0.913092
vt 0.654299 0.934819
vt 0.570186 0.956546
vt 0.612243 0.956546
vt 0.591215 0.956546
vt 0.633271 0.956546
vt 0.675328 0.934819
vt 0.654299 0.956546
vt 0.570186 0.978273
vt 0.591215 0.978273
vt 0.633271 0.978273
vt 0.612243 0.978273
vt 0.675328 0.956546
vt 0.654299 0.978273
vt 0.570186 1.000000
vt 0.591215 1.000000
vt 0.612243 1.000000
vt 0.633271 1.000000
vt 0.675328 0.978273
vt 0.654299 1.000000
vt 0.320745 0.792001
vt 0.160372 0.956966
vt 0.160372 0.792001
vt 0.320745 0.956966
vt 0.160372 0.978693
vt 0.538476 0.943329
vt 0.531027 0.777627
vt 0.538476 0.777627
vt 0.978566 0.165702
vt 0.957538 0.000000
vt 0.978566 0.000000
vt 0.488565 0.947047
vt 0.481117 0.781345
vt 0.488565 0.781345
vt 0.978566 0.331403
vt 0.957538 0.165702
vt 0.978566 0.165702
vt 0.927239 0.611384
vt 0.919790 0.445682
vt 0.927239 0.445682
vt 0.481117 0.781345
vt 0.320745 0.803072
vt 0.320745 0.781345
vt 0.481117 0.803072
vt 0.320745 0.968037
vt 0.717384 0.917125
vt 0.717384 0.891365
vt 0.894858 0.445682
vt 0.869927 0.445682
vt 0.919790 0.445682
vt 0.894859 0.610647
vt 0.894859 0.445682
vt 0.738413 0.917125
vt 0.738413 0.891365
vt 0.894859 0.654101
vt 0.869927 0.819066
vt 0.759441 0.917125
vt 0.738413 0.891365
vt 0.759441 0.891365
vt 0.919790 0.610647
vt 0.981756 0.826502
vt 0.956824 0.992203
vt 0.956824 0.826502
vt 0.998131 0.611384
vt 0.977102 0.445682
vt 0.998131 0.445682
vt 0.999594 0.165702
vt 0.978566 0.000000
vt 0.999594 0.000000
vt 0.999594 0.331403
vt 0.999594 0.165702
vt 0.932606 0.165702
vt 0.925158 0.000000
vt 0.932606 0.000000
vt 0.932606 0.331403
vt 0.925158 0.165702
vt 0.932606 0.165702
vt 0.931893 0.992203
vt 0.924444 0.826502
vt 0.931893 0.826502
vt 0.894859 0.819803
vt 0.902307 0.798076
vt 0.902307 0.819803
vt 0.675328 0.938852
vt 0.682776 0.917125
vt 0.682776 0.938852
vt 0.570186 0.280718
vt 0.570186 0.445682
vt 0.697673 0.938852
vt 0.705121 0.917125
vt 0.705121 0.938852
vt 0.764785 0.445682
vt 0.570186 0.610647
vt 0.570186 0.445682
vt 0.682776 0.938852
vt 0.690225 0.917125
vt 0.690225 0.938852
vt 0.160372 0.936232
vt 0.000000 0.590936
vt 0.160372 0.590936
vt 0.690225 0.938852
vt 0.697673 0.917125
vt 0.925158 0.000000
vt 0.764785 0.445682
vt 0.764785 0.000000
vt 0.712570 0.917125
vt 0.712570 0.938852
vt 0.932085 0.374857
vt 0.925158 0.396584
vt 0.925158 0.374857
vt 0.936915 0.798076
vt 0.915887 0.798076
vt 0.915887 0.632374
vt 0.932085 0.353130
vt 0.925158 0.353130
vt 0.932085 0.331403
vt 0.925158 0.331403
vt 0.939013 0.331403
vt 0.932085 0.353130
vt 0.932085 0.331403
vt 0.562887 0.590935
vt 0.555959 0.756637
vt 0.555959 0.590935
vt 0.939013 0.353130
vt 0.932085 0.374857
vt 0.939013 0.374857
vt 0.932085 0.396584
vt 0.939013 0.396584
vt 0.932085 0.418311
vt 0.939013 0.418311
vt 0.932085 0.440039
vt 0.569814 0.590935
vt 0.562887 0.756637
vt 0.562887 0.590935
vt 0.932085 0.418311
vt 0.925158 0.440039
vt 0.925158 0.418311
vt 0.932085 0.396584
vt 0.000000 0.590935
vt 0.358692 0.590935
vt 0.316636 0.590935
vt 0.160372 0.792001
vt 0.555959 0.777627
vt 0.675328 0.917125
vt 0.518526 0.781345
vt 0.564786 0.756637
vt 0.513497 0.781345
vt 0.764785 0.992203
vt 0.977102 0.611384
vt 0.274579 0.371513
vt 0.894858 0.632374
vt 0.531028 0.590935
vt 0.523554 0.781345
vt 0.675328 1.000000
vt 0.320745 0.978693
vt 0.563408 0.777627
vt 0.563408 0.943329
vt 0.531027 0.943329
vt 0.957538 0.165702
vt 0.481117 0.947047
vt 0.957538 0.331403
vt 0.952170 0.445682
vt 0.919790 0.611384
vt 0.481117 0.968037
vt 0.894859 0.819066
vt 0.738413 0.917125
vt 0.919790 0.632374
vt 0.981756 0.992203
vt 0.977102 0.611384
vt 0.957538 0.000000
vt 0.957538 0.165702
vt 0.925158 0.165702
vt 0.957538 0.331403
vt 0.925158 0.331403
vt 0.956825 0.826502
vt 0.956825 0.992203
vt 0.924444 0.992203
vt 0.894859 0.798076
vt 0.675328 0.917125
vt 0.764785 0.000000
vt 0.764785 0.891365
vt 0.682776 0.917125
vt 0.000000 0.936232
vt 0.690225 0.917125
vt 0.925158 0.445682
vt 0.978972 0.632374
vt 1.000000 0.632374
vt 1.000000 0.798076
vt 0.978972 0.798076
vt 0.957943 0.632374
vt 0.957943 0.798076
vt 0.936915 0.632374
vt 0.562887 0.756637
vt 0.939013 0.440039
vt 0.569814 0.756637
vt 0.932085 0.440039
s 0
usemtl Material.001
f 35/1/1 132/3/1 34/2/1
f 3/4/1 5/6/1 54/5/1
f 44/7/1 54/5/1 64/8/1
f 64/8/1 74/10/1 42/9/1
f 42/9/1 74/10/1 80/11/1
f 80/11/1 86/13/1 40/12/1
f 40/12/1 86/13/1 92/14/1
f 39/15/1 92/14/1 102/16/1
f 38/17/1 102/16/1 112/18/1
f 37/19/1 112/18/1 122/20/1
f 36/21/1 122/20/1 132/3/1
f 14/22/1 1/24/1 15/23/1
f 13/25/1 14/22/1 45/26/1
f 12/27/1 13/25/1 46/28/1
f 11/29/1 12/27/1 47/30/1
f 10/31/1 11/29/1 48/32/1
f 9/33/1 10/31/1 49/34/1
f 8/35/1 9/33/1 50/36/1
f 7/37/1 8/35/1 51/38/1
f 6/39/1 7/37/1 52/40/1
f 5/6/1 6/39/1 53/41/1
f 45/26/1 15/23/1 16/42/1
f 47/30/1 46/28/1 56/43/1
f 48/32/1 47/30/1 57/44/1
f 49/34/1 48/32/1 58/45/1
f 50/36/1 49/34/1 59/46/1
f 51/38/1 50/36/1 60/47/1
f 52/40/1 51/38/1 61/48/1
f 53/41/1 52/40/1 62/49/1
f 203/50/2 54/52/2 53/51/2
f 55/53/1 16/42/1 17/54/1
f 185/55/3 113/57/3 123/56/3
f 57/44/1 56/43/1 66/58/1
f 58/45/1 57/44/1 67/59/1
f 59/46/1 58/45/1 68/60/1
f 60/47/1 59/46/1 69/61/1
f 61/48/1 60/47/1 70/62/1
f 62/49/1 61/48/1 71/63/1
f 63/64/1 62/49/1 72/65/1
f 64/8/1 63/64/1 73/66/1
f 65/67/1 17/54/1 18/68/1
f 179/69/3 87/71/3 93/70/3
f 67/59/1 66/58/1 76/72/1
f 99/73/4 121/75/4 131/74/4
f 97/76/2 131/78/2 132/77/2
f 98/79/5 122/81/5 121/80/5
f 98/82/1 99/84/1 97/83/1
f 73/66/1 72/65/1 78/85/1
f 75/86/1 18/68/1 19/87/1
f 77/88/1 76/72/1 82/89/1
f 168/52/3 110/91/3 100/90/3
f 151/92/4 89/94/4 95/93/4
f 165/95/2 107/97/2 108/96/2
f 150/98/3 84/100/3 78/99/3
f 133/101/4 67/103/4 77/102/4
f 79/104/1 78/85/1 84/105/1
f 81/106/1 19/87/1 20/107/1
f 170/108/2 46/110/2 45/109/2
f 83/111/1 82/89/1 88/112/1
f 164/113/2 106/114/2 107/97/2
f 138/115/5 72/117/5 71/116/5
f 163/118/2 105/115/2 106/114/2
f 137/114/5 71/116/5 70/119/5
f 162/120/3 100/90/3 90/121/3
f 85/122/1 84/105/1 90/123/1
f 87/124/1 20/107/1 21/125/1
f 186/126/4 114/128/4 104/127/4
f 89/129/1 88/112/1 94/130/1
f 145/131/4 83/132/4 89/94/4
f 144/133/3 78/99/3 72/103/3
f 136/97/5 70/119/5 69/134/5
f 135/96/5 69/134/5 68/135/5
f 157/136/4 95/93/4 105/137/4
f 90/123/1 100/139/1 101/138/1
f 93/140/1 21/125/1 22/141/1
f 95/142/1 94/130/1 104/143/1
f 156/144/3 90/121/3 84/100/3
f 139/145/4 77/102/4 83/132/4
f 134/146/5 68/135/5 67/147/5
f 167/148/2 109/146/2 110/149/2
f 166/150/2 108/96/2 109/146/2
f 101/138/1 100/139/1 110/151/1
f 103/152/1 22/141/1 23/153/1
f 174/154/4 66/156/4 56/155/4
f 105/157/1 104/143/1 114/158/1
f 106/159/1 105/157/1 115/160/1
f 107/161/1 106/159/1 116/162/1
f 108/163/1 107/161/1 117/164/1
f 109/165/1 108/163/1 118/166/1
f 110/151/1 109/165/1 119/167/1
f 111/168/1 110/151/1 120/169/1
f 112/18/1 111/168/1 121/170/1
f 113/171/1 23/153/1 24/172/1
f 183/173/3 103/174/3 113/57/3
f 115/160/1 114/158/1 124/175/1
f 116/162/1 115/160/1 125/176/1
f 117/164/1 116/162/1 126/177/1
f 118/166/1 117/164/1 127/178/1
f 119/167/1 118/166/1 128/179/1
f 120/169/1 119/167/1 129/180/1
f 121/170/1 120/169/1 130/181/1
f 96/182/3 132/184/3 122/183/3
f 123/185/1 24/172/1 2/186/1
f 124/175/1 123/185/1 25/187/1
f 125/176/1 124/175/1 26/188/1
f 126/177/1 125/176/1 27/189/1
f 127/178/1 126/177/1 28/190/1
f 128/179/1 127/178/1 29/191/1
f 129/180/1 128/179/1 30/192/1
f 130/181/1 129/180/1 31/193/1
f 131/194/1 130/181/1 32/195/1
f 132/3/1 131/194/1 33/196/1
f 134/197/1 133/199/1 139/198/1
f 135/200/1 134/197/1 140/201/1
f 136/202/1 135/200/1 141/203/1
f 137/204/1 136/202/1 142/205/1
f 138/70/1 137/204/1 143/206/1
f 140/201/1 139/198/1 145/207/1
f 141/203/1 140/201/1 146/208/1
f 142/205/1 141/203/1 147/209/1
f 143/206/1 142/205/1 148/210/1
f 144/211/1 143/206/1 149/212/1
f 146/208/1 145/207/1 151/213/1
f 146/208/1 152/215/1 153/214/1
f 148/210/1 147/209/1 153/214/1
f 149/212/1 148/210/1 154/216/1
f 150/217/1 149/212/1 155/218/1
f 152/215/1 151/213/1 157/219/1
f 153/214/1 152/215/1 158/220/1
f 153/214/1 159/222/1 160/221/1
f 155/218/1 154/216/1 160/221/1
f 156/223/1 155/218/1 161/224/1
f 158/220/1 157/219/1 163/225/1
f 159/222/1 158/220/1 164/226/1
f 160/221/1 159/222/1 165/227/1
f 161/224/1 160/221/1 166/228/1
f 162/229/1 161/224/1 167/230/1
f 170/231/1 169/233/1 171/232/1
f 172/234/1 171/232/1 173/235/1
f 82/236/5 81/238/5 193/237/5
f 176/239/1 175/241/1 177/240/1
f 103/242/2 104/244/2 200/243/2
f 180/245/1 179/247/1 181/246/1
f 75/248/2 76/250/2 192/249/2
f 184/251/1 183/253/1 185/252/1
f 186/254/1 185/252/1 187/255/1
f 182/256/4 94/257/4 88/71/4
f 188/258/4 124/259/4 114/128/4
f 169/260/3 45/262/3 55/261/3
f 175/263/3 75/264/3 81/257/3
f 172/265/4 56/155/4 46/266/4
f 178/267/4 82/269/4 76/268/4
f 171/270/3 55/261/3 65/154/3
f 187/271/5 123/273/5 124/272/5
f 190/274/1 189/276/1 191/275/1
f 194/277/1 193/279/1 195/278/1
f 198/280/1 197/281/1 199/247/1
f 87/282/2 88/284/2 196/283/2
f 66/285/5 65/287/5 189/286/5
f 94/288/5 93/290/5 197/289/5
f 192/291/3 76/293/3 66/292/3
f 189/294/4 65/296/4 75/295/4
f 64/297/4 54/298/4 203/118/4
f 196/299/3 88/301/3 82/300/3
f 204/302/3 53/304/3 63/303/3
f 197/305/4 93/307/4 103/306/4
f 202/308/6 63/310/6 64/309/6
f 200/311/3 104/299/3 94/312/3
f 203/313/1 204/315/1 202/314/1
f 193/301/4 81/317/4 87/316/4
f 211/318/3 85/320/3 91/319/3
f 214/321/1 215/323/1 216/322/1
f 209/324/3 79/325/3 85/320/3
f 205/326/3 73/327/3 79/325/3
f 208/328/4 112/330/4 102/329/4
f 207/331/5 111/333/5 112/332/5
f 216/334/4 102/329/4 92/335/4
f 214/336/4 92/335/4 86/337/4
f 212/338/4 86/337/4 80/339/4
f 210/340/4 80/339/4 74/341/4
f 206/342/2 74/344/2 73/343/2
f 215/345/3 101/347/3 111/346/3
f 213/348/3 91/319/3 101/347/3
f 35/1/1 34/2/1 4/349/1
f 3/4/1 54/5/1 44/7/1
f 44/7/1 64/8/1 43/350/1
f 64/8/1 42/9/1 43/350/1
f 42/9/1 80/11/1 41/351/1
f 80/11/1 40/12/1 41/351/1
f 40/12/1 92/14/1 39/15/1
f 39/15/1 102/16/1 38/17/1
f 38/17/1 112/18/1 37/19/1
f 37/19/1 122/20/1 36/21/1
f 36/21/1 132/3/1 35/1/1
f 14/22/1 15/23/1 45/26/1
f 13/25/1 45/26/1 46/28/1
f 12/27/1 46/28/1 47/30/1
f 11/29/1 47/30/1 48/32/1
f 10/31/1 48/32/1 49/34/1
f 9/33/1 49/34/1 50/36/1
f 8/35/1 50/36/1 51/38/1
f 7/37/1 51/38/1 52/40/1
f 6/39/1 52/40/1 53/41/1
f 5/6/1 53/41/1 54/5/1
f 45/26/1 16/42/1 55/53/1
f 47/30/1 56/43/1 57/44/1
f 48/32/1 57/44/1 58/45/1
f 49/34/1 58/45/1 59/46/1
f 50/36/1 59/46/1 60/47/1
f 51/38/1 60/47/1 61/48/1
f 52/40/1 61/48/1 62/49/1
f 53/41/1 62/49/1 63/64/1
f 203/50/2 53/51/2 204/352/2
f 55/53/1 17/54/1 65/67/1
f 185/55/3 123/56/3 187/353/3
f 57/44/1 66/58/1 67/59/1
f 58/45/1 67/59/1 68/60/1
f 59/46/1 68/60/1 69/61/1
f 60/47/1 69/61/1 70/62/1
f 61/48/1 70/62/1 71/63/1
f 62/49/1 71/63/1 72/65/1
f 63/64/1 72/65/1 73/66/1
f 64/8/1 73/66/1 74/10/1
f 65/67/1 18/68/1 75/86/1
f 179/69/3 93/70/3 181/354/3
f 67/59/1 76/72/1 77/88/1
f 99/73/4 131/74/4 97/355/4
f 97/76/2 132/77/2 96/356/2
f 98/79/5 121/80/5 99/357/5
f 98/82/1 97/83/1 96/358/1
f 73/66/1 78/85/1 79/104/1
f 75/86/1 19/87/1 81/106/1
f 77/88/1 82/89/1 83/111/1
f 168/52/3 100/90/3 162/120/3
f 151/92/4 95/93/4 157/136/4
f 165/95/2 108/96/2 166/150/2
f 150/98/3 78/99/3 144/133/3
f 133/101/4 77/102/4 139/145/4
f 79/104/1 84/105/1 85/122/1
f 81/106/1 20/107/1 87/124/1
f 170/108/2 45/109/2 169/359/2
f 83/111/1 88/112/1 89/129/1
f 164/113/2 107/97/2 165/95/2
f 138/115/5 71/116/5 137/114/5
f 163/118/2 106/114/2 164/113/2
f 137/114/5 70/119/5 136/97/5
f 162/120/3 90/121/3 156/144/3
f 85/122/1 90/123/1 91/360/1
f 87/124/1 21/125/1 93/140/1
f 186/126/4 104/127/4 184/361/4
f 89/129/1 94/130/1 95/142/1
f 145/131/4 89/94/4 151/92/4
f 144/133/3 72/103/3 138/101/3
f 136/97/5 69/134/5 135/96/5
f 135/96/5 68/135/5 134/146/5
f 157/136/4 105/137/4 163/362/4
f 90/123/1 101/138/1 91/360/1
f 93/140/1 22/141/1 103/152/1
f 95/142/1 104/143/1 105/157/1
f 156/144/3 84/100/3 150/98/3
f 139/145/4 83/132/4 145/131/4
f 134/146/5 67/147/5 133/149/5
f 167/148/2 110/149/2 168/259/2
f 166/150/2 109/146/2 167/148/2
f 101/138/1 110/151/1 111/168/1
f 103/152/1 23/153/1 113/171/1
f 174/154/4 56/155/4 172/265/4
f 105/157/1 114/158/1 115/160/1
f 106/159/1 115/160/1 116/162/1
f 107/161/1 116/162/1 117/164/1
f 108/163/1 117/164/1 118/166/1
f 109/165/1 118/166/1 119/167/1
f 110/151/1 119/167/1 120/169/1
f 111/168/1 120/169/1 121/170/1
f 112/18/1 121/170/1 122/20/1
f 113/171/1 24/172/1 123/185/1
f 183/173/3 113/57/3 185/55/3
f 115/160/1 124/175/1 125/176/1
f 116/162/1 125/176/1 126/177/1
f 117/164/1 126/177/1 127/178/1
f 118/166/1 127/178/1 128/179/1
f 119/167/1 128/179/1 129/180/1
f 120/169/1 129/180/1 130/181/1
f 121/170/1 130/181/1 131/194/1
f 96/182/3 122/183/3 98/363/3
f 123/185/1 2/186/1 25/187/1
f 124/175/1 25/187/1 26/188/1
f 125/176/1 26/188/1 27/189/1
f 126/177/1 27/189/1 28/190/1
f 127/178/1 28/190/1 29/191/1
f 128/179/1 29/191/1 30/192/1
f 129/180/1 30/192/1 31/193/1
f 130/181/1 31/193/1 32/195/1
f 131/194/1 32/195/1 33/196/1
f 132/3/1 33/196/1 34/2/1
f 134/197/1 139/198/1 140/201/1
f 135/200/1 140/201/1 141/203/1
f 136/202/1 141/203/1 142/205/1
f 137/204/1 142/205/1 143/206/1
f 138/70/1 143/206/1 144/211/1
f 140/201/1 145/207/1 146/208/1
f 141/203/1 146/208/1 147/209/1
f 142/205/1 147/209/1 148/210/1
f 143/206/1 148/210/1 149/212/1
f 144/211/1 149/212/1 150/217/1
f 146/208/1 151/213/1 152/215/1
f 146/208/1 153/214/1 147/209/1
f 148/210/1 153/214/1 154/216/1
f 149/212/1 154/216/1 155/218/1
f 150/217/1 155/218/1 156/223/1
f 152/215/1 157/219/1 158/220/1
f 153/214/1 158/220/1 159/222/1
f 153/214/1 160/221/1 154/216/1
f 155/218/1 160/221/1 161/224/1
f 156/223/1 161/224/1 162/229/1
f 158/220/1 163/225/1 164/226/1
f 159/222/1 164/226/1 165/227/1
f 160/221/1 165/227/1 166/228/1
f 161/224/1 166/228/1 167/230/1
f 162/229/1 167/230/1 168/364/1
f 170/231/1 171/232/1 172/234/1
f 172/234/1 173/235/1 174/365/1
f 177/366/5 82/236/5 178/367/5
f 82/236/5 193/237/5 194/368/5
f 81/238/5 82/236/5 177/366/5
f 176/239/1 177/240/1 178/369/1
f 184/357/2 103/242/2 183/79/2
f 103/242/2 200/243/2 199/370/2
f 104/244/2 103/242/2 184/357/2
f 180/245/1 181/246/1 182/371/1
f 176/372/2 75/248/2 175/109/2
f 75/248/2 192/249/2 191/373/2
f 76/250/2 75/248/2 176/372/2
f 184/251/1 185/252/1 186/254/1
f 186/254/1 187/255/1 188/374/1
f 182/256/4 88/71/4 180/69/4
f 188/258/4 114/128/4 186/126/4
f 169/260/3 55/261/3 171/270/3
f 175/263/3 81/257/3 177/256/3
f 172/265/4 46/266/4 170/375/4
f 178/267/4 76/268/4 176/376/4
f 171/270/3 65/154/3 173/377/3
f 187/271/5 124/272/5 188/378/5
f 190/274/1 191/275/1 192/379/1
f 194/277/1 195/278/1 196/247/1
f 198/280/1 199/247/1 200/245/1
f 180/380/2 87/282/2 179/381/2
f 87/282/2 196/283/2 195/382/2
f 88/284/2 87/282/2 180/380/2
f 173/381/5 66/285/5 174/383/5
f 66/285/5 189/286/5 190/384/5
f 65/287/5 66/285/5 173/381/5
f 181/385/5 94/288/5 182/386/5
f 94/288/5 197/289/5 198/387/5
f 93/290/5 94/288/5 181/385/5
f 192/291/3 66/292/3 190/388/3
f 189/294/4 75/295/4 191/389/4
f 64/297/4 203/118/4 201/390/4
f 196/299/3 82/300/3 194/312/3
f 204/302/3 63/303/3 202/391/3
f 197/305/4 103/306/4 199/392/4
f 202/308/6 64/309/6 201/393/6
f 200/311/3 94/312/3 198/394/3
f 203/313/1 202/314/1 201/395/1
f 193/301/4 87/316/4 195/300/4
f 211/318/3 91/319/3 213/348/3
f 209/396/1 206/398/1 205/397/1
f 209/396/1 210/399/1 206/398/1
f 211/400/1 210/399/1 209/396/1
f 211/400/1 212/401/1 210/399/1
f 213/402/1 212/401/1 211/400/1
f 213/402/1 214/321/1 212/401/1
f 208/388/1 215/323/1 207/154/1
f 215/323/1 214/321/1 213/402/1
f 216/322/1 215/323/1 208/388/1
f 209/324/3 85/320/3 211/318/3
f 205/326/3 79/325/3 209/324/3
f 208/328/4 102/329/4 216/334/4
f 207/331/5 112/332/5 208/403/5
f 216/334/4 92/335/4 214/336/4
f 214/336/4 86/337/4 212/338/4
f 212/338/4 80/339/4 210/340/4
f 210/340/4 74/341/4 206/404/4
f 206/342/2 73/343/2 205/405/2
f 215/345/3 111/346/3 207/406/3
f 213/348/3 101/347/3 215/345/3
